<?xml version="1.0" encoding="utf-8"?>
<!-- Generator: Adobe Illustrator 26.3.1, SVG Export Plug-In . SVG Version: 6.00 Build 0)  -->
<svg version="1.1" id="Layer_1" xmlns="http://www.w3.org/2000/svg" xmlns:xlink="http://www.w3.org/1999/xlink" x="0px" y="0px"
	 viewBox="0 0 16 16" style="enable-background:new 0 0 16 16;" xml:space="preserve">
<path d="M14.7,4.3c-0.4-0.4-1-0.4-1.4,0L8,9.6L2.7,4.3c-0.4-0.4-1-0.4-1.4,0l0,0C1.1,4.5,1,4.7,1,5c0,0.3,0.1,0.5,0.3,0.7l6,6
	C7.5,11.9,7.7,12,8,12c0,0,0,0,0,0c0.3,0,0.5-0.1,0.7-0.3l6-6C14.9,5.5,15,5.3,15,5S14.9,4.5,14.7,4.3z"/>
</svg>
