<?xml version="1.0" encoding="UTF-8"?><svg id="Layer_1" xmlns="http://www.w3.org/2000/svg" width="200" height="200" viewBox="0 0 200 200"><defs><style>.cls-1{fill:#fff;stroke-width:0px;}</style></defs><path class="cls-1" d="M137.98,9.8v44.3h44.3l-44.3-44.3Z"/><path class="cls-1" d="M78.04,61.63l-3.96-3.96v44.31h44.31l-40.36-40.36Z"/><path class="cls-1" d="M62.02,54.11H23.35c-5.08,0-9.2,4.12-9.2,9.2v121.25c0,5.08,4.12,9.2,9.2,9.2h89.41c5.08,0,9.2-4.12,9.2-9.2v-70.52h-59.93v-59.93Z"/><path class="cls-1" d="M125.92,66.17V6.24h-38.68c-5.08,0-9.2,4.12-9.2,9.2v29.18l48.85,48.85,6.92,7.12v45.3h42.82c5.08,0,9.2-4.12,9.2-9.2v-70.52s-59.92,0-59.92,0Z"/></svg>